<svg xmlns="http://www.w3.org/2000/svg" width="20" height="20" viewBox="0 0 20 20"><path d="M920,470a10,10,0,1,1,10-10,10,10,0,0,1-10,10Zm5-6.682a1.136,1.136,0,0,1,0,1.606l-.074.073a1.14,1.14,0,0,1-1.611,0l-2.921-2.918a.57.57,0,0,0-.806,0l-2.914,2.916a1.14,1.14,0,0,1-1.612,0L915,464.93a1.136,1.136,0,0,1,.006-1.614l2.945-2.912a.567.567,0,0,0,0-.81L915,456.686a1.136,1.136,0,0,1-.006-1.615l.064-.064a1.138,1.138,0,0,1,.806-.333,3.386,3.386,0,0,1,1.291.818l2.429,2.429a.569.569,0,0,0,.806,0L923.315,455a1.14,1.14,0,0,1,1.611,0l.074.076a1.136,1.136,0,0,1,0,1.606l-2.909,2.912a.567.567,0,0,0,0,.8Z" transform="translate(-910 -450)" fill="#bf0000" fill-rule="evenodd"/></svg>